<svg width="27" height="29" viewBox="0 0 27 29" fill="none" xmlns="http://www.w3.org/2000/svg">
<path d="M13.5 7.78098C12.2184 7.78098 10.9655 8.1751 9.89991 8.9135C8.83427 9.6519 8.00372 10.7014 7.51326 11.9293C7.02281 13.1573 6.89448 14.5084 7.14451 15.812C7.39454 17.1155 8.0117 18.3129 8.91795 19.2527C9.82419 20.1925 10.9788 20.8326 12.2358 21.0919C13.4928 21.3511 14.7957 21.2181 15.9798 20.7094C17.1639 20.2008 18.1759 19.3395 18.8879 18.2344C19.6 17.1293 19.98 15.8301 19.98 14.501C19.98 12.7187 19.2973 11.0095 18.0821 9.74922C16.8668 8.48897 15.2186 7.78098 13.5 7.78098ZM13.5 18.981C12.6456 18.981 11.8104 18.7182 11.0999 18.226C10.3895 17.7337 9.83581 17.034 9.50884 16.2154C9.18187 15.3968 9.09632 14.496 9.26301 13.627C9.4297 12.7579 9.84114 11.9597 10.4453 11.3331C11.0495 10.7066 11.8192 10.2799 12.6572 10.1071C13.4952 9.9342 14.3638 10.0229 15.1532 10.362C15.9426 10.7011 16.6173 11.2753 17.0919 12.012C17.5666 12.7488 17.82 13.6149 17.82 14.501C17.8164 15.688 17.3602 16.8254 16.5508 17.6647C15.7414 18.5041 14.6446 18.9773 13.5 18.981ZM19.44 0.500977H7.56C5.55496 0.500977 3.63205 1.32697 2.21427 2.79726C0.796498 4.26754 0 6.26168 0 8.34098V20.661C0 22.7403 0.796498 24.7344 2.21427 26.2047C3.63205 27.675 5.55496 28.501 7.56 28.501H19.44C21.445 28.501 23.368 27.675 24.7857 26.2047C26.2035 24.7344 27 22.7403 27 20.661V8.34098C27 6.26168 26.2035 4.26754 24.7857 2.79726C23.368 1.32697 21.445 0.500977 19.44 0.500977ZM24.84 20.661C24.84 21.3964 24.7003 22.1246 24.429 22.804C24.1576 23.4834 23.7598 24.1008 23.2584 24.6208C22.7569 25.1408 22.1616 25.5533 21.5065 25.8347C20.8513 26.1161 20.1491 26.261 19.44 26.261H7.56C6.85086 26.261 6.14867 26.1161 5.49351 25.8347C4.83835 25.5533 4.24306 25.1408 3.74162 24.6208C3.24019 24.1008 2.84243 23.4834 2.57105 22.804C2.29968 22.1246 2.16 21.3964 2.16 20.661V8.34098C2.16 6.85576 2.72893 5.43138 3.74162 4.38118C4.75432 3.33097 6.12783 2.74098 7.56 2.74098H19.44C20.1491 2.74098 20.8513 2.88582 21.5065 3.16725C22.1616 3.44868 22.7569 3.86117 23.2584 4.38118C23.7598 4.90119 24.1576 5.51853 24.429 6.19795C24.7003 6.87737 24.84 7.60557 24.84 8.34098V20.661ZM22.14 7.22098C22.14 7.55325 22.045 7.87806 21.867 8.15433C21.689 8.43061 21.436 8.64594 21.1399 8.77309C20.8439 8.90025 20.5182 8.93352 20.204 8.8687C19.8897 8.80387 19.601 8.64387 19.3745 8.40892C19.1479 8.17396 18.9936 7.87462 18.9311 7.54873C18.8686 7.22284 18.9007 6.88505 19.0233 6.57807C19.1459 6.27109 19.3536 6.00871 19.62 5.82411C19.8864 5.63951 20.1996 5.54098 20.52 5.54098C20.9497 5.54098 21.3617 5.71798 21.6655 6.03304C21.9693 6.3481 22.14 6.77541 22.14 7.22098Z" fill="#9CA3AF"/>
</svg>
